# xmcd
#
# Track frame offsets:
#	225
#	20653
#	40824
#	57335
#	78455
#	100318
#	120194
#	145447
#	163485
#	180211
#	193449
#	208625
#	225639
#
# Disc length: 3227 seconds
#
# Revision: 4
# Processed by: cddbd v1.5.2PL0 Copyright (c) Steve Scherf et al.
# Submitted via: audiograbber 1.83.01
#
DISCID=b60c980d
DTITLE=Blackberry Smoke - Find A Light
DYEAR=2018
DGENRE=Southern Rock
TTITLE0=Flesh And Bone
TTITLE1=Run Away From It All
TTITLE2=The Crooked Kind
TTITLE3=Medicate My Mind
TTITLE4=I've Got This Song
TTITLE5=Best Seat In The House
TTITLE6=I'll Keep Ramblin' [featuring Robert Randolph]
TTITLE7=Seems So Far
TTITLE8=Lord Strike Me Dead
TTITLE9=Let Me Down Easy [featuring Amanda Shires]
TTITLE10=Nobody Gives A Damn
TTITLE11=Till The Wheels Fall Off
TTITLE12=Mother Mountain [featuring The Wood Brothers]
EXTD=
EXTT0=
EXTT1=
EXTT2=
EXTT3=
EXTT4=
EXTT5=
EXTT6=
EXTT7=
EXTT8=
EXTT9=
EXTT10=
EXTT11=
EXTT12=
PLAYORDER=
